<svg width="25" height="24" viewBox="0 0 25 24" fill="none" xmlns="http://www.w3.org/2000/svg">
<path d="M22.1389 8.26318H18.0906C16.8937 8.31145 14.614 9 14.614 11.704C14.614 14.408 16.8937 15.0972 18.0906 15.1457H22.1389C22.5531 15.1457 22.8889 14.8099 22.8889 14.3957C22.8889 13.9815 22.5531 13.6457 22.1389 13.6457H18.0911C17.0182 13.6451 16.1492 12.7762 16.1484 11.704C16.1484 10.5 17 9.76318 18.0909 9.76318H22.1389C22.5531 9.76318 22.8889 9.4274 22.8889 9.01318C22.8889 8.59897 22.5531 8.26318 22.1389 8.26318Z" fill="#808080"/>
<path fill-rule="evenodd" clip-rule="evenodd" d="M17.4868 11.6428C17.4868 11.2286 17.8226 10.8928 18.2368 10.8928H18.5485C18.9627 10.8928 19.2985 11.2286 19.2985 11.6428C19.2985 12.057 18.9627 12.3928 18.5485 12.3928H18.2368C17.8226 12.3928 17.4868 12.057 17.4868 11.6428Z" fill="#808080"/>
<path fill-rule="evenodd" clip-rule="evenodd" d="M8.24766 3.75C5.76372 3.75 3.75 5.76372 3.75 8.24766V15.4247C3.75 17.9086 5.76372 19.9224 8.24766 19.9224H16.8911C19.375 19.9224 21.3888 17.9086 21.3888 15.4247V8.24766C21.3888 5.76372 19.375 3.75 16.8911 3.75H8.24766ZM2.25 8.24766C2.25 4.9353 4.9353 2.25 8.24766 2.25H16.8911C20.2035 2.25 22.8888 4.9353 22.8888 8.24766V15.4247C22.8888 18.7371 20.2035 21.4224 16.8911 21.4224H8.24766C4.9353 21.4224 2.25 18.7371 2.25 15.4247V8.24766Z" fill="#808080"/>
<path fill-rule="evenodd" clip-rule="evenodd" d="M6.78564 7.53809C6.78564 7.12387 7.12143 6.78809 7.53564 6.78809H12.9346C13.3488 6.78809 13.6846 7.12387 13.6846 7.53809C13.6846 7.9523 13.3488 8.28809 12.9346 8.28809H7.53564C7.12143 8.28809 6.78564 7.9523 6.78564 7.53809Z" fill="#808080"/>
</svg>
